<?xml version="1.0" standalone="no"?>
<!DOCTYPE svg PUBLIC "-//W3C//DTD SVG 20010904//EN"
 "http://www.w3.org/TR/2001/REC-SVG-20010904/DTD/svg10.dtd">
<svg version="1.0" xmlns="http://www.w3.org/2000/svg"
 width="46.000000pt" height="46.000000pt" viewBox="0 0 46.000000 46.000000"
 preserveAspectRatio="xMidYMid meet">

<g transform="translate(0.000000,46.000000) scale(0.100000,-0.100000)"
fill="#000000" stroke="none">
<path d="M90 445 c0 -8 -7 -15 -15 -15 -12 0 -15 -14 -15 -70 0 -56 -3 -70
-15 -70 -8 0 -15 -7 -15 -15 0 -8 7 -15 15 -15 8 0 15 -7 15 -15 0 -8 -7 -15
-15 -15 -8 0 -15 -7 -15 -15 0 -8 7 -15 15 -15 8 0 15 -7 15 -15 0 -8 7 -15
15 -15 8 0 15 -7 15 -15 0 -8 -7 -15 -15 -15 -9 0 -15 -9 -15 -25 0 -16 6 -25
15 -25 8 0 15 -7 15 -15 0 -8 5 -15 10 -15 6 0 10 -7 10 -15 0 -8 7 -15 15
-15 8 0 15 -7 15 -15 0 -10 10 -15 30 -15 20 0 30 5 30 15 0 10 10 15 30 15
20 0 30 -5 30 -15 0 -10 10 -15 30 -15 20 0 30 5 30 15 0 8 5 15 10 15 6 0 10
7 10 15 0 8 7 15 15 15 8 0 15 7 15 15 0 8 7 15 15 15 9 0 15 9 15 25 0 16 -6
25 -15 25 -8 0 -15 7 -15 15 0 8 7 15 15 15 8 0 15 7 15 15 0 8 7 15 15 15 8
0 15 7 15 15 0 8 -7 15 -15 15 -8 0 -15 7 -15 15 0 8 7 15 15 15 8 0 15 7 15
15 0 8 -7 15 -15 15 -12 0 -15 14 -15 70 0 56 -3 70 -15 70 -8 0 -15 7 -15 15
0 11 -11 15 -40 15 -29 0 -40 -4 -40 -15 0 -8 -7 -15 -15 -15 -8 0 -15 -7 -15
-15 0 -10 -10 -15 -30 -15 -20 0 -30 5 -30 15 0 8 -7 15 -15 15 -8 0 -15 7
-15 15 0 11 -11 15 -40 15 -29 0 -40 -4 -40 -15z m80 -45 l0 -30 60 0 60 0 0
30 c0 28 2 30 40 30 l40 0 0 -130 0 -130 -140 0 -140 0 0 130 0 130 40 0 c38
0 40 -2 40 -30z m-30 -275 c0 -10 10 -15 30 -15 20 0 30 5 30 15 0 10 10 15
30 15 20 0 30 -5 30 -15 0 -10 10 -15 30 -15 20 0 30 5 30 15 0 9 9 15 25 15
20 0 25 -5 25 -25 0 -20 -5 -25 -25 -25 -21 0 -25 -5 -25 -30 0 -27 -3 -30
-30 -30 -20 0 -30 5 -30 15 0 10 -10 15 -30 15 -20 0 -30 -5 -30 -15 0 -10
-10 -15 -30 -15 -27 0 -30 3 -30 30 0 25 -4 30 -25 30 -20 0 -25 5 -25 25 0
20 5 25 25 25 16 0 25 -6 25 -15z"/>
<path d="M110 245 c0 -8 7 -15 15 -15 8 0 15 7 15 15 0 8 -7 15 -15 15 -8 0
-15 -7 -15 -15z"/>
<path d="M320 245 c0 -8 5 -15 10 -15 6 0 10 7 10 15 0 8 -4 15 -10 15 -5 0
-10 -7 -10 -15z"/>
</g>
</svg>
